{"title":"The Phantom of the Opera.1925.1080p.BluRay.x264 . NVEE","uid":11894796,"size":2308197986,"categoryP":"video","categoryS":"hd___movies","magnet":"?xt=urn:btih:d81e2a236be3d188d565ab379b2f042d648475c5&amp;dn=The+Phantom+of+the+Opera.1925.1080p.BluRay.x264+.+NVEE&amp;tr=udp%3A%2F%2Ftracker.openbittorrent.com%3A80&amp;tr=udp%3A%2F%2Fopen.demonii.com%3A1337&amp;tr=udp%3A%2F%2Ftracker.coppersurfer.tk%3A6969&amp;tr=udp%3A%2F%2Fexodus.desync.com%3A6969","seeders":6,"leechers":2,"uploader":".NVEE","files":1,"time":1431126229,"description":"\nQuick note : \nIf you require a torrent release I have posted in the past, not seeding,... \nPlease do not hesitate to inform me in any means you find fit to do so. \nTorrent requests also &quot;Always Welcome.&quot; \n\n \nFULL_INFOs \n\n99.99% &gt;&gt;&gt; SYNCED GUARANTEED \n\n&quot;Totally scrutinized / analyzed to be a verified torrent.&quot; \n___________________________________________ \n\nSource : Blu-ray ~ 1080p \n\n \n\nSpoken Language : English \n\nAudio : 2 ~ Channels Only @ 640Kbps AC-3 \n\nOriginal version ~ Original 1925 version (b&amp;w, 103 mins) with newly commissioned piano accompaniment by Ed Bussey \n\n \nSubs Info : \n\nN/A \nAll .srt UTF-8 .idx &amp; .ass subs can be turned On/Off \n_____________________________________ \n--------------------------------------------------------------------------------- \n \nGeneral Metadata \n\nComplete name : The Phantom of the.Opera.1925.1080p.BluRay.x264 . NVEE.mp4 \nFormat : MPEG-4 \nFormat profile : Base Media \nCodec ID : isom \nFile size : 2.15 GiB \nDuration : 1h 42mn \nOverall bit rate : 2 995 Kbps \nEncoded date : UTC 2015-05-08 06:53:38 \nTagged date : UTC 2015-05-08 06:53:38 \n\n \nVideo \n\nID : 1 \nFormat : AVC \nFormat/Info : Advanced Video Codec \nFormat profile : High@L5 \nFormat settings, CABAC : Yes \nFormat settings, ReFrames : 5 frames \nCodec ID : avc1 \nCodec ID/Info : Advanced Video Coding \nDuration : 1h 42mn \nBit rate : 2 353 Kbps \nMaximum bit rate : 5 625 Kbps \nWidth : 1 440 pixels \nHeight : 1 080 pixels \nDisplay aspect ratio : 4:3 \nFrame rate mode : Constant \nFrame rate : 20.000 fps \nColor space : YUV \nChroma subsampling : 4:2:0 \nBit depth : 8 bits \nScan type : Progressive \nBits/(Pixel*Frame) : 0.076 \nStream size : 1.69 GiB (79%) \nWriting library : x264 core 146 r2538 121396c \nEncoded from Physical Blu-ray / Region free \n\n \nAudio \n\nID : 2 \nFormat : AC-3 \nFormat/Info : Audio Coding 3 \nMode extension : CM (complete main) \nFormat settings, Endianness : Big \nCodec ID : ac-3 \nDuration : 1h 42mn \nBit rate mode : Constant \nBit rate : 640 Kbps \nChannel(s) : 2 channels \nChannel positions : Front: L R \nSampling rate : 48.0 KHz \nBit depth : 16 bits \nCompression mode : Lossy \nStream size : 470 MiB (21%) \nLanguage : English \nEncoded date : UTC 2015-05-08 07:01:48 \nTagged date : UTC 2015-05-08 07:01:59 \n\n \n\n \n\n \n\n\n\n\nEnj0y !","torrent":{"xt":"urn:btih:d81e2a236be3d188d565ab379b2f042d648475c5","amp;dn":"The+Phantom+of+the+Opera.1925.1080p.BluRay.x264+.+NVEE","amp;tr":["udp%3A%2F%2Ftracker.openbittorrent.com%3A80","udp%3A%2F%2Fopen.demonii.com%3A1337","udp%3A%2F%2Ftracker.coppersurfer.tk%3A6969","udp%3A%2F%2Fexodus.desync.com%3A6969"],"infoHash":"d81e2a236be3d188d565ab379b2f042d648475c5","infoHashBuffer":{"type":"Buffer","data":[216,30,42,35,107,227,209,136,213,101,171,55,155,47,4,45,100,132,117,197]},"announce":[],"urlList":[]}}